# xmcd
#
# Track frame offsets:
#	150
#	15600
#	32927
#	47221
#	65376
#	89869
#	102548
#	118411
#	128354
#	154205
#
# Disc length: 2246 seconds
#
# Revision: 1
# Processed by: cddbd v1.5.2PL0 Copyright (c) Steve Scherf et al.
# Submitted via: audiograbber 1.83.01
#
DISCID=8d08c40a
DTITLE=Alabama Black Snakes - Rhythm'n'Loose
DYEAR=2011
DGENRE=Blues Rock
TTITLE0=No Man
TTITLE1=Hot Pants
TTITLE2=Interstate Love
TTITLE3=Keep on Rollin'
TTITLE4=Spit on Your Grave
TTITLE5=Lord it's a Good Day
TTITLE6=You make Me go Insane
TTITLE7=Ain't it Queer
TTITLE8=Jungle Shit
TTITLE9=Sky is Clearing
EXTD=
EXTT0=
EXTT1=
EXTT2=
EXTT3=
EXTT4=
EXTT5=
EXTT6=
EXTT7=
EXTT8=
EXTT9=
PLAYORDER=
